<svg xmlns="http://www.w3.org/2000/svg" viewBox="0 0 900 216" width="900" height="216" role="img" font-family="ui-sans-serif,-apple-system,'Segoe UI','PingFang SC','Microsoft YaHei',sans-serif">
<rect width="900" height="216" fill="#171E21"/>
<text x="16" y="18" font-size="13" font-weight="700" fill="#E4E9E9">361 records by severity and kind</text>
<text x="16" y="34" font-size="10.5" fill="#9AA8AD" font-weight="600">Severity</text>
<rect x="16.0" y="40" width="111.0" height="26" rx="3" fill="#F88684"/>
<text x="71.5" y="57" font-size="10.5" text-anchor="middle" font-family="ui-monospace,'SF Mono','Cascadia Mono','Consolas',monospace" font-weight="700" fill="#101617">47</text>
<rect x="129.0" y="40" width="339.4" height="26" rx="3" fill="#D66060"/>
<text x="298.7" y="57" font-size="10.5" text-anchor="middle" font-family="ui-monospace,'SF Mono','Cascadia Mono','Consolas',monospace" font-weight="700" fill="#FFFFFF">142</text>
<rect x="470.4" y="40" width="188.0" height="26" rx="3" fill="#AC4244"/>
<text x="564.4" y="57" font-size="10.5" text-anchor="middle" font-family="ui-monospace,'SF Mono','Cascadia Mono','Consolas',monospace" font-weight="700" fill="#FFFFFF">79</text>
<rect x="660.4" y="40" width="17.2" height="26" rx="3" fill="#7B3031"/>
<rect x="679.6" y="40" width="202.4" height="26" rx="3" fill="#6B7175"/>
<text x="780.8" y="57" font-size="10.5" text-anchor="middle" font-family="ui-monospace,'SF Mono','Cascadia Mono','Consolas',monospace" font-weight="700" fill="#FFFFFF">85</text>
<rect x="16" y="67" width="10" height="10" rx="2" fill="#F88684"/>
<text x="31" y="76" font-size="10.5" fill="#9AA8AD">Critical critical · 47</text>
<rect x="186.36" y="67" width="10" height="10" rx="2" fill="#D66060"/>
<text x="201.36" y="76" font-size="10.5" fill="#9AA8AD">High high · 142</text>
<rect x="315.56" y="67" width="10" height="10" rx="2" fill="#AC4244"/>
<text x="330.56" y="76" font-size="10.5" fill="#9AA8AD">Medium medium · 79</text>
<rect x="462.4" y="67" width="10" height="10" rx="2" fill="#7B3031"/>
<text x="477.4" y="76" font-size="10.5" fill="#9AA8AD">Low low · 8</text>
<rect x="568.0799999999999" y="67" width="10" height="10" rx="2" fill="#6B7175"/>
<text x="583.0799999999999" y="76" font-size="10.5" fill="#9AA8AD">Info info · 85</text>
<text x="16" y="104" font-size="10.5" fill="#9AA8AD" font-weight="600">Kind</text>
<rect x="16.0" y="110" width="339.4" height="26" rx="3" fill="#F88684"/>
<text x="185.7" y="127" font-size="10.5" text-anchor="middle" font-family="ui-monospace,'SF Mono','Cascadia Mono','Consolas',monospace" font-weight="700" fill="#101617">142</text>
<rect x="357.4" y="110" width="111.0" height="26" rx="3" fill="#D66060"/>
<text x="412.9" y="127" font-size="10.5" text-anchor="middle" font-family="ui-monospace,'SF Mono','Cascadia Mono','Consolas',monospace" font-weight="700" fill="#FFFFFF">47</text>
<rect x="470.4" y="110" width="207.2" height="26" rx="3" fill="#AC4244"/>
<text x="574.0" y="127" font-size="10.5" text-anchor="middle" font-family="ui-monospace,'SF Mono','Cascadia Mono','Consolas',monospace" font-weight="700" fill="#FFFFFF">87</text>
<rect x="679.6" y="110" width="34.1" height="26" rx="3" fill="#7B3031"/>
<rect x="715.7" y="110" width="166.3" height="26" rx="3" fill="#6B7175"/>
<text x="798.8" y="127" font-size="10.5" text-anchor="middle" font-family="ui-monospace,'SF Mono','Cascadia Mono','Consolas',monospace" font-weight="700" fill="#FFFFFF">70</text>
<rect x="16" y="137" width="10" height="10" rx="2" fill="#F88684"/>
<text x="31" y="146" font-size="10.5" fill="#9AA8AD">Incident · 142</text>
<rect x="139.32" y="137" width="10" height="10" rx="2" fill="#D66060"/>
<text x="154.32" y="146" font-size="10.5" fill="#9AA8AD">Vulnerability disclosure · 47</text>
<rect x="350.84000000000003" y="137" width="10" height="10" rx="2" fill="#AC4244"/>
<text x="365.84000000000003" y="146" font-size="10.5" fill="#9AA8AD">Research demo · 87</text>
<rect x="497.68000000000006" y="137" width="10" height="10" rx="2" fill="#7B3031"/>
<text x="512.6800000000001" y="146" font-size="10.5" fill="#9AA8AD">Threat report · 15</text>
<rect x="644.5200000000001" y="137" width="10" height="10" rx="2" fill="#6B7175"/>
<text x="659.5200000000001" y="146" font-size="10.5" fill="#9AA8AD">Policy &amp; regulation · 70</text>
<text x="16" y="206" font-size="10" fill="#6B787E">130 with a confirmed victim, 146 research demos or no in-the-wild use, 85 policy and intelligence reports (not applicable)</text>
</svg>
