<svg xmlns="http://www.w3.org/2000/svg" viewBox="0 0 900 216" width="900" height="216" role="img" font-family="ui-sans-serif,-apple-system,'Segoe UI','PingFang SC','Microsoft YaHei',sans-serif">
<rect width="900" height="216" fill="#171E21"/>
<text x="16" y="18" font-size="13" font-weight="700" fill="#E4E9E9">330 records by severity and kind</text>
<text x="16" y="34" font-size="10.5" fill="#9AA8AD" font-weight="600">Severity</text>
<rect x="16.0" y="40" width="116.4" height="26" rx="3" fill="#F88684"/>
<text x="74.2" y="57" font-size="10.5" text-anchor="middle" font-family="ui-monospace,'SF Mono','Cascadia Mono','Consolas',monospace" font-weight="700" fill="#101617">45</text>
<rect x="134.4" y="40" width="332.0" height="26" rx="3" fill="#D66060"/>
<text x="300.4" y="57" font-size="10.5" text-anchor="middle" font-family="ui-monospace,'SF Mono','Cascadia Mono','Consolas',monospace" font-weight="700" fill="#FFFFFF">127</text>
<rect x="468.4" y="40" width="184.8" height="26" rx="3" fill="#AC4244"/>
<text x="560.8" y="57" font-size="10.5" text-anchor="middle" font-family="ui-monospace,'SF Mono','Cascadia Mono','Consolas',monospace" font-weight="700" fill="#FFFFFF">71</text>
<rect x="655.2" y="40" width="19.0" height="26" rx="3" fill="#7B3031"/>
<rect x="676.2" y="40" width="205.8" height="26" rx="3" fill="#6B7175"/>
<text x="779.1" y="57" font-size="10.5" text-anchor="middle" font-family="ui-monospace,'SF Mono','Cascadia Mono','Consolas',monospace" font-weight="700" fill="#FFFFFF">79</text>
<rect x="16" y="67" width="10" height="10" rx="2" fill="#F88684"/>
<text x="31" y="76" font-size="10.5" fill="#9AA8AD">Critical critical · 45</text>
<rect x="186.36" y="67" width="10" height="10" rx="2" fill="#D66060"/>
<text x="201.36" y="76" font-size="10.5" fill="#9AA8AD">High high · 127</text>
<rect x="315.56" y="67" width="10" height="10" rx="2" fill="#AC4244"/>
<text x="330.56" y="76" font-size="10.5" fill="#9AA8AD">Medium medium · 71</text>
<rect x="462.4" y="67" width="10" height="10" rx="2" fill="#7B3031"/>
<text x="477.4" y="76" font-size="10.5" fill="#9AA8AD">Low low · 8</text>
<rect x="568.0799999999999" y="67" width="10" height="10" rx="2" fill="#6B7175"/>
<text x="583.0799999999999" y="76" font-size="10.5" fill="#9AA8AD">Info info · 79</text>
<text x="16" y="104" font-size="10.5" fill="#9AA8AD" font-weight="600">Kind</text>
<rect x="16.0" y="110" width="350.5" height="26" rx="3" fill="#F88684"/>
<text x="191.2" y="127" font-size="10.5" text-anchor="middle" font-family="ui-monospace,'SF Mono','Cascadia Mono','Consolas',monospace" font-weight="700" fill="#101617">134</text>
<rect x="368.5" y="110" width="105.8" height="26" rx="3" fill="#D66060"/>
<text x="421.4" y="127" font-size="10.5" text-anchor="middle" font-family="ui-monospace,'SF Mono','Cascadia Mono','Consolas',monospace" font-weight="700" fill="#FFFFFF">41</text>
<rect x="476.3" y="110" width="197.9" height="26" rx="3" fill="#AC4244"/>
<text x="575.3" y="127" font-size="10.5" text-anchor="middle" font-family="ui-monospace,'SF Mono','Cascadia Mono','Consolas',monospace" font-weight="700" fill="#FFFFFF">76</text>
<rect x="676.2" y="110" width="32.2" height="26" rx="3" fill="#7B3031"/>
<rect x="710.4" y="110" width="171.6" height="26" rx="3" fill="#6B7175"/>
<text x="796.2" y="127" font-size="10.5" text-anchor="middle" font-family="ui-monospace,'SF Mono','Cascadia Mono','Consolas',monospace" font-weight="700" fill="#FFFFFF">66</text>
<rect x="16" y="137" width="10" height="10" rx="2" fill="#F88684"/>
<text x="31" y="146" font-size="10.5" fill="#9AA8AD">Incident · 134</text>
<rect x="139.32" y="137" width="10" height="10" rx="2" fill="#D66060"/>
<text x="154.32" y="146" font-size="10.5" fill="#9AA8AD">Vulnerability disclosure · 41</text>
<rect x="350.84000000000003" y="137" width="10" height="10" rx="2" fill="#AC4244"/>
<text x="365.84000000000003" y="146" font-size="10.5" fill="#9AA8AD">Research demo · 76</text>
<rect x="497.68000000000006" y="137" width="10" height="10" rx="2" fill="#7B3031"/>
<text x="512.6800000000001" y="146" font-size="10.5" fill="#9AA8AD">Threat report · 13</text>
<rect x="644.5200000000001" y="137" width="10" height="10" rx="2" fill="#6B7175"/>
<text x="659.5200000000001" y="146" font-size="10.5" fill="#9AA8AD">Policy &amp; regulation · 66</text>
<text x="16" y="206" font-size="10" fill="#6B787E">124 with a confirmed victim, 127 research demos or no in-the-wild use, 79 policy and intelligence reports (not applicable)</text>
</svg>
